<svg width="120" height="180" viewBox="0 0 120 180" fill="none" xmlns="http://www.w3.org/2000/svg">
  <rect width="120" height="180" fill="#374151"/>
  <rect x="10" y="10" width="100" height="160" fill="#4B7688"/>
  <svg x="45" y="70" width="30" height="40" viewBox="0 0 24 24" fill="#F9FAFB">
    <path d="M19 3H5C3.9 3 3 3.9 3 5V19C3 20.1 3.9 21 5 21H19C20.1 21 21 20.1 21 19V5C21 3.9 20.1 3 19 3ZM19 19H5V5H19V19Z"/>
    <path d="M7 7H17V9H7V7Z"/>
    <path d="M7 11H17V13H7V11Z"/>
    <path d="M7 15H13V17H7V15Z"/>
  </svg>
</svg>
